TITLE ""
FILE "P1Q_t_0701-0709.mp3" MP3
  TRACK 01 AUDIO
    TITLE "P1Q_t_0701-0709_01"
    INDEX 01 00:00:00
  TRACK 02 AUDIO
    TITLE "P1Q_t_0701-0709_02"
    INDEX 01 00:00:08
  TRACK 03 AUDIO
    TITLE "P1Q_t_0701-0709_03"
    INDEX 01 00:01:43
  TRACK 04 AUDIO
    TITLE "P1Q_t_0701-0709_04"
    INDEX 01 00:02:15
  TRACK 05 AUDIO
    TITLE "P1Q_t_0701-0709_05"
    INDEX 01 00:03:18
  TRACK 06 AUDIO
    TITLE "P1Q_t_0701-0709_06"
    INDEX 01 00:03:63
  TRACK 07 AUDIO
    TITLE "P1Q_t_0701-0709_07"
    INDEX 01 00:04:71
  TRACK 08 AUDIO
    TITLE "P1Q_t_0701-0709_08"
    INDEX 01 00:05:15
  TRACK 09 AUDIO
    TITLE "P1Q_t_0701-0709_09"
    INDEX 01 00:08:06
  TRACK 10 AUDIO
    TITLE "P1Q_t_0701-0709_10"
    INDEX 01 00:08:25
  TRACK 11 AUDIO
    TITLE "P1Q_t_0701-0709_11"
    INDEX 01 00:11:34
  TRACK 12 AUDIO
    TITLE "P1Q_t_0701-0709_12"
    INDEX 01 00:12:04
  TRACK 13 AUDIO
    TITLE "P1Q_t_0701-0709_13"
    INDEX 01 00:13:27
  TRACK 14 AUDIO
    TITLE "P1Q_t_0701-0709_14"
    INDEX 01 00:13:46
  TRACK 15 AUDIO
    TITLE "P1Q_t_0701-0709_15"
    INDEX 01 00:15:73
  TRACK 16 AUDIO
    TITLE "P1Q_t_0701-0709_16"
    INDEX 01 00:16:23
  TRACK 17 AUDIO
    TITLE "P1Q_t_0701-0709_17"
    INDEX 01 00:21:05
  TRACK 18 AUDIO
    TITLE "P1Q_t_0701-0709_18"
    INDEX 01 00:21:52
  TRACK 19 AUDIO
    TITLE "P1Q_t_0701-0709_19"
    INDEX 01 00:22:61
  TRACK 20 AUDIO
    TITLE "P1Q_t_0701-0709_20"
    INDEX 01 00:23:07
  TRACK 21 AUDIO
    TITLE "P1Q_t_0701-0709_21"
    INDEX 01 00:24:54
  TRACK 22 AUDIO
    TITLE "P1Q_t_0701-0709_22"
    INDEX 01 00:24:72
  TRACK 23 AUDIO
    TITLE "P1Q_t_0701-0709_23"
    INDEX 01 00:28:44
  TRACK 24 AUDIO
    TITLE "P1Q_t_0701-0709_24"
    INDEX 01 00:29:16
  TRACK 25 AUDIO
    TITLE "P1Q_t_0701-0709_25"
    INDEX 01 00:30:47
  TRACK 26 AUDIO
    TITLE "P1Q_t_0701-0709_26"
    INDEX 01 00:30:66
  TRACK 27 AUDIO
    TITLE "P1Q_t_0701-0709_27"
    INDEX 01 00:35:46
  TRACK 28 AUDIO
    TITLE "P1Q_t_0701-0709_28"
    INDEX 01 00:35:65
  TRACK 29 AUDIO
    TITLE "P1Q_t_0701-0709_29"
    INDEX 01 00:39:55
  TRACK 30 AUDIO
    TITLE "P1Q_t_0701-0709_30"
    INDEX 01 00:40:27
  TRACK 31 AUDIO
    TITLE "P1Q_t_0701-0709_31"
    INDEX 01 00:41:46
  TRACK 32 AUDIO
    TITLE "P1Q_t_0701-0709_32"
    INDEX 01 00:41:68
  TRACK 33 AUDIO
    TITLE "P1Q_t_0701-0709_33"
    INDEX 01 00:46:16
  TRACK 34 AUDIO
    TITLE "P1Q_t_0701-0709_34"
    INDEX 01 00:46:38
  TRACK 35 AUDIO
    TITLE "P1Q_t_0701-0709_35"
    INDEX 01 00:50:55
  TRACK 36 AUDIO
    TITLE "P1Q_t_0701-0709_36"
    INDEX 01 00:51:25
  TRACK 37 AUDIO
    TITLE "P1Q_t_0701-0709_37"
    INDEX 01 00:52:33
  TRACK 38 AUDIO
    TITLE "P1Q_t_0701-0709_38"
    INDEX 01 00:52:54
  TRACK 39 AUDIO
    TITLE "P1Q_t_0701-0709_39"
    INDEX 01 00:55:52
  TRACK 40 AUDIO
    TITLE "P1Q_t_0701-0709_40"
    INDEX 01 00:55:72
  TRACK 41 AUDIO
    TITLE "P1Q_t_0701-0709_41"
    INDEX 01 01:01:43
  TRACK 42 AUDIO
    TITLE "P1Q_t_0701-0709_42"
    INDEX 01 01:02:13
  TRACK 43 AUDIO
    TITLE "P1Q_t_0701-0709_43"
    INDEX 01 01:03:30
  TRACK 44 AUDIO
    TITLE "P1Q_t_0701-0709_44"
    INDEX 01 01:03:52
  TRACK 45 AUDIO
    TITLE "P1Q_t_0701-0709_45"
    INDEX 01 01:05:31
  TRACK 46 AUDIO
    TITLE "P1Q_t_0701-0709_46"
    INDEX 01 01:05:53
  TRACK 47 AUDIO
    TITLE "P1Q_t_0701-0709_47"
    INDEX 01 01:10:34
  TRACK 48 AUDIO
    TITLE "P1Q_t_0701-0709_48"
    INDEX 01 01:11:06
  TRACK 49 AUDIO
    TITLE "P1Q_t_0701-0709_49"
    INDEX 01 01:12:24
  TRACK 50 AUDIO
    TITLE "P1Q_t_0701-0709_50"
    INDEX 01 01:12:45
  TRACK 51 AUDIO
    TITLE "P1Q_t_0701-0709_51"
    INDEX 01 01:16:47
  TRACK 52 AUDIO
    TITLE "P1Q_t_0701-0709_52"
    INDEX 01 01:16:68
  TRACK 53 AUDIO
    TITLE "P1Q_t_0701-0709_53"
    INDEX 01 01:20:58
  TRACK 54 AUDIO
    TITLE "P1Q_t_0701-0709_54"
    INDEX 01 01:21:32
  TRACK 55 AUDIO
    TITLE "P1Q_t_0701-0709_55"
    INDEX 01 01:22:57
  TRACK 56 AUDIO
    TITLE "P1Q_t_0701-0709_56"
    INDEX 01 01:23:06
  TRACK 57 AUDIO
    TITLE "P1Q_t_0701-0709_57"
    INDEX 01 01:26:39
  TRACK 58 AUDIO
    TITLE "P1Q_t_0701-0709_58"
    INDEX 01 01:26:61
  TRACK 59 AUDIO
    TITLE "P1Q_t_0701-0709_59"
    INDEX 01 01:31:05
